<svg width="24" height="24" viewBox="0 0 24 24" fill="none" xmlns="http://www.w3.org/2000/svg">
<path d="M23.9993 7.60932C23.9553 7.34532 23.9194 7.13932 23.6398 6.96832C12.2068 0.177363 12.3685 -0.328634 11.6266 0.120364C2.96171 5.51433 0.550079 6.71733 0.203564 7.13732C-0.110996 7.46032 0.0328024 7.95532 0.0328024 15.4353C0.0118317 16.2863 7.76499 20.8972 11.5357 23.8392C11.8683 24.0762 12.2867 24.0382 12.5373 23.8102C23.7456 15.8543 24.0183 16.1743 23.9993 15.4353C23.9993 15.4353 23.9873 7.50832 23.9993 7.60932ZM22.5014 14.1003L18.6308 11.7413L22.5014 9.04431V14.1003ZM17.2317 10.8883L12.765 8.16632V2.09635L21.8782 7.65132L17.2317 10.8883ZM12.016 14.5213L8.14546 11.8243L12.016 9.46531L15.8866 11.8243L12.016 14.5213ZM11.2671 2.09535V8.16932C9.53052 9.24831 8.06257 10.1493 6.82231 10.9033L2.15384 7.65132L11.2671 2.09535ZM5.41827 11.7533C3.54689 12.8803 2.3246 13.5963 1.53071 14.0733V9.04431L5.41827 11.7533ZM6.74641 12.6773L11.2671 15.8263V21.8252L2.15384 15.4763L6.74641 12.6773ZM12.765 21.8262V15.8273L17.2857 12.6783L21.8782 15.4773L12.765 21.8262Z" fill="white"/>
</svg>
