<svg width="22" height="22" viewBox="0 0 22 22" fill="none" xmlns="http://www.w3.org/2000/svg">
<path d="M13.55 21.7531H4.14988C1.97883 21.7531 0.212646 20.2284 0.212646 18.3542V6.84034C0.212646 4.96612 1.97883 3.44141 4.14988 3.44141H13.55C15.7211 3.44141 17.4873 4.96612 17.4873 6.84034V18.3542C17.4873 20.2284 15.7211 21.7531 13.55 21.7531ZM4.14988 5.14088C3.06445 5.14088 2.18127 5.90331 2.18127 6.84034V18.3542C2.18127 19.2912 3.06445 20.0537 4.14988 20.0537H13.55C14.6355 20.0537 15.5187 19.2912 15.5187 18.3542V6.84034C15.5187 5.90331 14.6355 5.14088 13.55 5.14088H4.14988ZM21.4245 16.2299V3.39893C21.4245 1.5247 19.6583 0 17.4873 0H6.56144C6.01777 0 5.57713 0.380388 5.57713 0.849732C5.57713 1.31908 6.01777 1.69946 6.56144 1.69946H17.4873C18.5727 1.69946 19.4559 2.4619 19.4559 3.39893V16.2299C19.4559 16.6992 19.8965 17.0796 20.4402 17.0796C20.9839 17.0796 21.4245 16.6992 21.4245 16.2299Z" fill="white"/>
</svg>
