<svg width="24" height="24" viewBox="0 0 24 24" fill="none" xmlns="http://www.w3.org/2000/svg">
<path d="M6.26085 24H0V7.4668H6.26085V24ZM1.04341 22.9334H5.21744V8.5334H1.04341V22.9334Z" fill="white"/>
<path d="M24 24H17.7392V14.9334C17.7392 14.0498 17.0383 13.3334 16.174 13.3334C15.3094 13.3334 14.6088 14.0498 14.6088 14.9334V24H8.3479V7.4668H14.6088V8.54004C15.5538 7.8416 16.6904 7.46602 17.8565 7.4668C21.2412 7.4668 24 10.2734 24 13.7268V24ZM18.7826 22.9334H22.9564V13.7268C22.9494 10.8537 20.6671 8.52969 17.8565 8.5334C16.5718 8.5334 15.3652 9.08672 14.4653 10.0867L13.5652 11.0934V8.5334H9.39131V22.9334H13.5652V14.9334C13.5652 13.4605 14.7331 12.2668 16.174 12.2668C17.6146 12.2668 18.7826 13.4605 18.7826 14.9334V22.9334Z" fill="white"/>
<path d="M3.13043 6.4C1.40147 6.4 0 4.96738 0 3.2C0 1.43281 1.40147 0 3.13043 0C4.85938 0 6.26085 1.43281 6.26085 3.2C6.25722 4.96582 4.85786 6.39648 3.13043 6.4ZM3.13043 1.0668C1.97792 1.0668 1.04341 2.02188 1.04341 3.2C1.04341 4.37832 1.97792 5.3334 3.13043 5.3334C4.28294 5.3334 5.21744 4.37832 5.21744 3.2C5.21744 2.02188 4.28294 1.0668 3.13043 1.0668Z" fill="white"/>
</svg>
